<svg xmlns="http://www.w3.org/2000/svg" width="512" height="512" viewBox="0 0 512 512">
<g>
<path d="M 418.75 501.49 C409.06,503.33 390.99,503.31 381.63,501.45 C361.83,497.51 343.26,488.04 329.44,474.83 L 323.37 469.04 L 177.44 468.77 L 31.50 468.50 L 26.00 465.89 C19.41,462.76 13.85,457.36 10.77,451.10 L 8.50 446.50 L 8.50 69.50 L 11.29 63.82 C14.45,57.38 19.30,52.68 25.95,49.61 C30.05,47.72 32.68,47.48 52.75,47.17 L 75.00 46.83 L 75.01 38.17 C75.01,26.69 76.26,22.70 81.66,16.94 C91.20,6.73 106.15,6.30 115.80,15.96 C121.34,21.50 122.37,24.47 122.81,36.25 L 123.22 47.00 L 158.00 47.00 L 158.00 39.18 C158.00,29.60 159.95,22.70 164.07,17.72 C172.37,7.68 188.08,6.24 197.87,14.62 C203.93,19.81 206.09,25.26 206.74,37.01 L 207.29 47.00 L 242.00 47.00 L 242.00 37.20 C242.00,28.69 242.34,26.71 244.55,22.28 C248.98,13.39 258.45,8.25 268.49,9.29 C274.76,9.93 278.50,11.71 282.76,16.07 C288.11,21.53 289.44,25.43 289.83,36.75 L 290.18 47.00 L 324.77 47.00 L 325.19 36.75 C325.51,28.84 326.09,25.59 327.71,22.50 C335.84,7.05 357.00,4.48 367.84,17.62 C372.00,22.66 372.99,26.51 372.99,37.67 L 373.00 46.84 L 395.75 47.17 C417.19,47.48 418.77,47.63 423.23,49.83 C425.83,51.11 429.95,54.37 432.39,57.08 C433.63,58.46 434.67,59.42 435.54,60.52 C440.03,66.16 440.03,75.38 440.00,164.67 C440.00,171.68 440.00,179.18 440.00,187.21 L 440.00 303.07 L 444.74 305.10 C464.60,313.62 486.02,335.81 495.47,357.68 C505.99,382.01 506.81,410.64 497.67,434.96 C484.60,469.76 455.15,494.58 418.75,501.49 ZM 32.74 425.57 C35.81,426.67 60.57,426.92 167.58,426.96 C239.68,426.98 298.89,426.78 299.16,426.50 C299.44,426.23 299.07,423.19 298.35,419.75 C297.63,416.31 296.74,408.66 296.37,402.75 L 295.70 392.00 L 284.00 392.00 C270.82,392.00 266.78,391.02 265.14,387.40 C264.41,385.80 264.00,377.64 264.00,364.56 C264.00,362.41 263.99,360.45 263.97,358.65 C263.90,349.00 263.87,344.19 266.26,341.77 C268.64,339.36 273.43,339.32 282.99,339.25 C284.78,339.24 286.73,339.23 288.87,339.19 C302.36,339.00 310.63,339.27 311.90,339.95 C313.63,340.87 314.44,340.27 318.32,335.25 C323.70,328.29 332.56,319.82 340.00,314.55 C347.49,309.24 347.66,309.06 344.91,309.22 C339.40,309.55 336.25,308.89 334.19,306.96 C332.07,304.99 332.00,304.25 332.00,283.42 C332.00,281.26 331.99,279.27 331.97,277.45 C331.91,267.15 331.87,262.00 334.43,259.44 C336.99,256.87 342.15,256.91 352.48,256.97 C354.30,256.99 356.29,257.00 358.45,257.00 C378.67,257.00 380.12,257.12 382.00,259.00 C383.85,260.85 384.00,262.33 384.00,278.62 L 384.00 296.24 L 393.25 295.56 C401.63,294.95 414.24,295.81 422.75,297.58 L 426.00 298.25 L 426.00 140.00 L 22.00 140.00 L 22.02 276.75 C22.04,406.82 22.13,413.70 23.86,417.50 C26.02,422.24 27.70,423.77 32.74,425.57 ZM 383.11 487.52 C392.35,489.61 413.08,488.86 423.35,486.06 C453.45,477.85 477.20,454.30 486.67,423.28 C489.08,415.37 489.35,412.96 489.35,399.00 C489.35,385.03 489.08,382.63 486.67,374.70 C475.24,337.27 443.87,312.00 405.60,309.40 C381.31,307.75 356.64,316.77 338.78,333.83 C325.22,346.78 317.57,359.52 312.83,377.07 C309.63,388.89 309.64,409.81 312.85,421.50 C322.11,455.24 347.99,479.56 383.11,487.52 ZM 22.00 99.46 L 22.00 126.00 L 426.00 126.00 L 426.00 99.15 C426.00,72.87 425.95,72.22 423.73,68.92 C422.48,67.07 419.93,64.52 418.08,63.27 C414.72,61.01 414.57,61.00 376.85,61.00 L 339.00 61.00 L 339.00 66.05 C339.00,74.55 340.83,76.71 350.47,79.63 C352.10,80.12 354.13,81.76 354.97,83.26 C356.33,85.70 356.34,86.29 355.00,88.67 C352.78,92.63 349.10,93.46 342.44,91.53 C331.77,88.42 325.00,78.44 325.00,65.81 L 325.00 60.97 L 255.50 61.50 L 255.54 66.73 C255.59,72.76 258.13,77.05 262.35,78.25 C263.81,78.66 266.23,79.35 267.73,79.77 C270.85,80.64 272.61,84.42 271.67,88.19 C269.82,95.56 255.50,93.07 247.77,84.04 C243.65,79.23 242.00,74.25 242.00,66.63 L 242.00 61.00 L 172.00 61.00 L 172.00 66.05 C172.00,74.47 174.58,77.55 183.24,79.43 C189.16,80.73 190.59,88.26 185.54,91.57 C183.46,92.93 182.28,92.99 177.53,92.01 C166.24,89.66 159.76,81.59 158.52,68.32 L 157.83 61.00 L 88.00 61.00 L 88.01 64.25 C88.02,72.67 92.27,79.00 97.91,79.00 C102.15,79.00 105.00,81.61 105.00,85.49 C105.00,91.78 100.62,93.90 92.50,91.54 C81.87,88.45 76.01,80.56 75.21,68.25 L 74.74 61.00 L 54.33 61.00 C30.71,61.00 27.67,61.80 24.01,68.97 C22.15,72.64 22.00,74.83 22.00,99.46 ZM 394.50 440.64 C389.18,443.13 385.61,443.42 380.07,441.83 C376.32,440.76 349.97,415.72 347.41,410.80 C345.59,407.32 345.59,397.68 347.41,394.20 C349.02,391.13 353.46,386.78 356.68,385.12 C359.44,383.71 367.98,383.67 371.68,385.06 C373.23,385.64 377.09,388.66 380.26,391.78 L 386.02 397.46 L 405.76 377.84 C416.62,367.04 426.55,357.68 427.84,357.02 C431.69,355.07 440.07,355.49 444.74,357.87 C452.80,361.98 457.06,374.59 452.94,382.15 C452.15,383.60 439.80,396.83 425.50,411.55 C405.11,432.53 398.42,438.81 394.50,440.64 ZM 32.74 453.57 C35.81,454.67 61.57,454.92 173.69,454.96 C249.15,454.98 311.10,454.65 311.36,454.23 C311.62,453.80 310.31,450.77 308.45,447.48 L 305.06 441.50 L 168.28 441.00 C40.79,440.53 31.24,440.38 27.63,438.75 C25.50,437.79 23.36,437.00 22.88,437.00 C21.34,437.00 21.93,441.94 23.93,445.86 C26.26,450.44 27.85,451.82 32.74,453.57 ZM 245.69 389.59 C242.93,391.97 242.61,392.00 223.19,391.94 C212.36,391.90 202.54,391.48 201.36,391.01 C196.44,389.02 196.00,386.96 196.00,365.82 C196.00,344.83 196.51,342.00 200.66,340.11 C202.19,339.41 210.69,339.00 223.55,339.00 C242.58,339.00 244.14,339.14 245.97,340.97 C248.94,343.94 249.15,345.93 248.81,367.40 L 248.50 387.18 ZM 246.59 306.69 L 244.18 309.50 L 224.34 309.64 C213.43,309.72 203.50,309.58 202.27,309.33 C201.04,309.07 199.13,307.71 198.02,306.30 C196.14,303.91 196.00,302.28 196.00,282.98 C196.00,280.78 195.99,278.78 195.97,276.94 C195.90,267.06 195.87,262.17 198.29,259.74 C200.67,257.35 205.40,257.32 214.77,257.25 C216.54,257.24 218.48,257.22 220.61,257.19 C232.04,257.02 242.42,257.14 243.68,257.46 C248.27,258.61 249.00,262.25 249.00,283.89 C249.00,303.58 248.96,303.93 246.59,306.69 ZM 178.08 389.08 L 175.15 392.00 L 155.33 391.92 C134.70,391.84 133.63,391.72 130.75,389.21 C129.18,387.85 129.00,385.38 129.00,365.42 C129.00,341.46 129.15,340.75 134.38,339.44 C135.61,339.13 145.74,339.02 156.90,339.19 C158.96,339.22 160.84,339.24 162.57,339.25 C171.67,339.32 176.32,339.35 178.68,341.69 C181.13,344.13 181.09,349.07 181.03,359.16 C181.01,360.99 181.00,363.00 181.00,365.19 L 181.00 386.15 ZM 111.09 389.14 C109.20,391.47 108.91,391.50 88.34,391.72 C76.88,391.83 66.52,391.52 65.32,391.02 C61.39,389.39 61.00,387.02 61.00,364.64 L 61.00 343.15 L 63.63 341.07 C66.11,339.13 67.54,339.00 87.18,339.00 C89.24,339.00 91.14,338.99 92.89,338.98 C102.95,338.91 108.02,338.88 110.55,341.40 C113.12,343.95 113.09,349.12 113.02,359.52 C113.01,361.30 113.00,363.24 113.00,365.34 C113.00,384.95 112.84,386.98 111.09,389.14 ZM 106.87 309.04 C102.87,310.19 71.98,310.14 67.05,308.98 C61.17,307.60 61.00,306.87 61.00,282.88 L 61.00 261.15 L 63.63 259.07 C66.11,257.12 67.54,257.00 87.56,257.00 L 108.85 257.00 L 110.93 259.63 C112.88,262.11 113.00,263.51 112.97,283.38 C112.93,306.64 112.77,307.35 106.87,309.04 ZM 313.92 307.57 C312.06,309.26 309.86,309.47 292.17,309.64 C281.35,309.75 271.50,309.62 270.27,309.35 C269.04,309.09 267.13,307.71 266.02,306.30 C264.14,303.91 264.00,302.28 264.00,282.82 C264.00,280.75 263.99,278.85 263.98,277.09 C263.91,267.05 263.88,261.99 266.39,259.46 C268.95,256.88 274.13,256.91 284.59,256.98 C286.38,256.99 288.33,257.00 290.45,257.00 C310.67,257.00 312.12,257.12 314.00,259.00 C315.88,260.88 316.00,262.33 316.00,283.35 C316.00,304.70 315.91,305.77 313.92,307.57 ZM 178.61 306.67 L 176.22 309.44 L 156.36 309.78 C138.73,310.08 136.11,309.92 133.00,308.31 L 129.50 306.50 L 129.22 285.00 C129.06,273.17 129.16,262.56 129.44,261.42 C130.38,257.61 133.98,257.00 155.59,257.00 C157.56,257.00 159.37,256.99 161.05,256.98 C171.03,256.92 176.05,256.89 178.57,259.38 C181.11,261.91 181.08,267.03 181.02,277.34 C181.01,279.04 181.00,280.89 181.00,282.90 C181.00,303.58 180.97,303.93 178.61,306.67 ZM 246.14 225.09 C243.98,226.84 241.96,227.00 222.50,227.00 C203.05,227.00 201.02,226.84 198.86,225.09 C196.53,223.20 196.50,222.90 196.19,201.60 L 195.89 180.02 L 198.40 177.51 L 200.91 175.00 L 222.80 175.00 C243.78,175.00 244.77,175.09 246.60,177.10 C248.35,179.04 248.50,180.98 248.50,201.19 C248.50,223.09 248.49,223.18 246.14,225.09 ZM 178.93 224.37 L 176.85 227.00 L 155.15 227.00 C137.12,227.00 133.07,226.74 131.22,225.44 C129.04,223.91 129.00,223.50 129.00,201.44 C129.00,180.33 129.12,178.88 131.00,177.00 C132.88,175.12 134.33,175.00 154.93,175.00 L 176.85 175.00 L 178.93 177.63 C180.87,180.11 181.00,181.54 181.00,201.00 C181.00,220.46 180.87,221.89 178.93,224.37 ZM 110.93 224.37 L 108.85 227.00 L 87.10 227.00 C84.80,227.00 82.70,227.02 80.79,227.03 C70.83,227.11 65.84,227.15 63.35,224.67 C60.85,222.18 60.89,217.14 60.97,207.05 C60.98,205.12 61.00,203.00 61.00,200.69 C61.00,180.33 61.12,178.88 63.00,177.00 C64.88,175.12 66.33,175.00 86.83,175.00 C89.10,175.00 91.17,174.98 93.07,174.97 C103.19,174.90 108.21,174.86 110.69,177.36 C113.14,179.82 113.10,184.75 113.03,194.56 C113.02,196.42 113.00,198.45 113.00,200.68 C113.00,220.46 112.88,221.89 110.93,224.37 ZM 382.00 225.00 C380.12,226.88 378.67,227.00 358.45,227.00 C356.30,227.00 354.32,227.01 352.50,227.02 C342.15,227.09 336.98,227.13 334.42,224.56 C331.87,222.00 331.91,216.87 331.98,206.63 C331.99,204.82 332.00,202.86 332.00,200.72 C332.00,198.48 331.98,196.43 331.97,194.56 C331.89,184.77 331.86,179.83 334.31,177.36 C336.79,174.86 341.84,174.90 352.01,174.97 C353.93,174.98 356.02,175.00 358.31,175.00 C378.67,175.00 380.12,175.12 382.00,177.00 C383.88,178.88 384.00,180.33 384.00,201.00 C384.00,221.67 383.88,223.12 382.00,225.00 ZM 314.00 225.00 C312.12,226.88 310.67,227.00 290.45,227.00 C288.32,227.00 286.36,227.01 284.55,227.02 C274.14,227.09 268.96,227.12 266.40,224.55 C263.88,222.01 263.91,216.92 263.98,206.80 C263.99,205.02 264.00,203.10 264.00,201.00 C264.00,198.90 263.99,196.98 263.98,195.20 C263.91,185.08 263.88,179.99 266.40,177.45 C268.96,174.88 274.14,174.91 284.55,174.98 C286.36,174.99 288.32,175.00 290.45,175.00 C310.67,175.00 312.12,175.12 314.00,177.00 C315.88,178.88 316.00,180.33 316.00,201.00 C316.00,221.67 315.88,223.12 314.00,225.00 ZM 372.34 416.80 C379.57,423.95 385.48,429.00 386.61,429.00 C388.77,429.00 441.00,377.27 441.00,375.14 C441.00,372.30 438.85,370.00 436.21,370.00 C433.99,370.00 429.39,374.10 411.50,392.00 C393.03,410.49 389.06,414.00 386.64,414.00 C384.39,414.00 381.96,412.25 375.56,406.00 C367.28,397.92 364.02,396.38 361.20,399.20 C358.40,402.00 360.11,404.71 372.34,416.80 ZM 74.67 377.33 C75.03,377.70 80.66,378.00 87.17,378.00 L 99.00 378.00 L 99.00 353.00 L 74.00 353.00 L 74.00 364.83 C74.00,371.34 74.30,376.97 74.67,377.33 ZM 142.00 353.00 L 142.00 378.06 L 154.25 377.78 L 166.50 377.50 L 167.06 353.00 ZM 210.00 353.00 L 210.00 378.06 L 222.25 377.78 L 234.50 377.50 L 235.06 353.00 ZM 74.00 189.00 L 74.00 213.00 L 99.00 213.00 L 99.00 189.00 ZM 142.00 189.00 L 142.00 213.00 L 167.00 213.00 L 167.00 189.00 ZM 210.00 189.00 L 210.00 213.00 L 235.00 213.00 L 235.00 189.00 ZM 74.00 271.00 L 74.00 295.00 L 99.00 295.00 L 99.00 271.00 ZM 142.00 271.00 L 142.00 295.00 L 167.00 295.00 L 167.00 271.00 ZM 210.00 271.00 L 210.00 295.00 L 235.00 295.00 L 235.00 271.00 ZM 278.00 189.00 L 278.00 213.00 L 302.00 213.00 L 302.00 189.00 ZM 346.00 189.00 L 346.00 213.00 L 370.00 213.00 L 370.00 189.00 ZM 278.00 271.00 L 278.00 295.00 L 302.00 295.00 L 302.00 271.00 ZM 346.00 271.00 L 346.00 295.00 L 370.00 295.00 L 370.00 271.00 ZM 278.00 353.00 L 278.00 378.07 L 288.19 377.78 L 298.39 377.50 L 300.18 371.50 C301.17,368.20 301.98,362.69 301.99,359.25 L 302.00 353.00 ZM 256.00 38.95 L 256.00 47.00 L 276.00 47.00 L 276.00 39.05 C276.00,29.95 274.77,26.45 270.85,24.43 C267.49,22.69 264.92,22.62 261.47,24.19 C257.43,26.04 256.00,29.90 256.00,38.95 ZM 339.00 39.25 L 339.00 47.00 L 359.00 47.00 L 359.00 37.92 C359.00,29.22 358.88,28.72 356.08,25.92 C351.47,21.31 344.58,22.36 341.00,28.23 C339.46,30.75 339.01,33.27 339.00,39.25 ZM 89.00 38.40 L 89.00 47.00 L 109.00 47.00 L 109.00 39.05 C109.00,29.95 107.77,26.45 103.85,24.43 C99.36,22.10 96.14,22.66 92.40,26.40 C89.06,29.74 89.00,29.95 89.00,38.40 ZM 172.00 39.75 L 172.00 47.00 L 192.00 47.00 L 192.00 37.92 C192.00,29.22 191.88,28.72 189.08,25.92 C185.89,22.73 182.19,22.18 178.00,24.28 C174.03,26.26 172.00,31.49 172.00,39.75 Z" fill="rgb(3,3,3)"/>
<path d="M 383.11 487.52 C347.99,479.56 322.11,455.24 312.85,421.50 C309.64,409.81 309.63,388.89 312.83,377.07 C317.57,359.52 325.22,346.78 338.78,333.83 C356.64,316.77 381.31,307.75 405.60,309.40 C443.87,312.00 475.24,337.27 486.67,374.70 C489.08,382.63 489.35,385.03 489.35,399.00 C489.35,412.96 489.08,415.37 486.67,423.28 C477.20,454.30 453.45,477.85 423.35,486.06 C413.08,488.86 392.35,489.61 383.11,487.52 ZM 394.50 440.64 C398.42,438.81 405.11,432.53 425.50,411.55 C439.80,396.83 452.15,383.60 452.94,382.15 C457.06,374.59 452.80,361.98 444.74,357.87 C440.07,355.49 431.69,355.07 427.84,357.02 C426.55,357.68 416.62,367.04 405.76,377.84 L 386.02 397.46 L 380.26 391.78 C377.09,388.66 373.23,385.64 371.68,385.06 C367.98,383.67 359.44,383.71 356.68,385.12 C353.46,386.78 349.02,391.13 347.41,394.20 C345.59,397.68 345.59,407.32 347.41,410.80 C349.97,415.72 376.32,440.76 380.07,441.83 C385.61,443.42 389.18,443.13 394.50,440.64 ZM 74.67 377.33 C74.30,376.97 74.00,371.34 74.00,364.83 L 74.00 353.00 L 99.00 353.00 L 99.00 378.00 L 87.17 378.00 C80.66,378.00 75.03,377.70 74.67,377.33 ZM 142.00 353.00 L 167.06 353.00 L 166.50 377.50 L 154.25 377.78 L 142.00 378.06 ZM 210.00 353.00 L 235.06 353.00 L 234.50 377.50 L 222.25 377.78 L 210.00 378.06 ZM 74.00 189.00 L 99.00 189.00 L 99.00 213.00 L 74.00 213.00 ZM 142.00 189.00 L 167.00 189.00 L 167.00 213.00 L 142.00 213.00 ZM 210.00 189.00 L 235.00 189.00 L 235.00 213.00 L 210.00 213.00 ZM 74.00 271.00 L 99.00 271.00 L 99.00 295.00 L 74.00 295.00 ZM 142.00 271.00 L 167.00 271.00 L 167.00 295.00 L 142.00 295.00 ZM 210.00 271.00 L 235.00 271.00 L 235.00 295.00 L 210.00 295.00 ZM 278.00 189.00 L 302.00 189.00 L 302.00 213.00 L 278.00 213.00 ZM 346.00 189.00 L 370.00 189.00 L 370.00 213.00 L 346.00 213.00 ZM 278.00 271.00 L 302.00 271.00 L 302.00 295.00 L 278.00 295.00 ZM 346.00 271.00 L 370.00 271.00 L 370.00 295.00 L 346.00 295.00 ZM 278.00 353.00 L 302.00 353.00 L 301.99 359.25 C301.98,362.69 301.17,368.20 300.18,371.50 L 298.39 377.50 L 288.19 377.78 L 278.00 378.07 Z" fill="rgb(118,228,204)"/>
<path d="M 0.00 0.00 L 512.00 0.00 L 512.00 512.00 L 0.00 512.00 ZM 418.75 501.49 C455.15,494.58 484.60,469.76 497.67,434.96 C506.81,410.64 505.99,382.01 495.47,357.68 C486.02,335.81 464.60,313.62 444.74,305.10 L 440.00 303.07 L 440.00 187.21 C440.00,179.18 440.00,171.68 440.00,164.67 L 440.00 164.67 C440.03,75.38 440.03,66.16 435.54,60.52 C434.67,59.42 433.63,58.46 432.39,57.08 C429.95,54.37 425.83,51.11 423.23,49.83 C418.77,47.63 417.19,47.48 395.75,47.17 L 373.00 46.84 L 372.99 37.67 C372.99,26.51 372.00,22.66 367.84,17.62 C357.00,4.48 335.84,7.05 327.71,22.50 C326.09,25.59 325.51,28.84 325.19,36.75 L 324.77 47.00 L 290.18 47.00 L 289.83 36.75 C289.44,25.43 288.11,21.53 282.76,16.07 C278.50,11.71 274.76,9.93 268.49,9.29 C258.45,8.25 248.98,13.39 244.55,22.28 C242.34,26.71 242.00,28.69 242.00,37.20 L 242.00 47.00 L 207.29 47.00 L 206.74 37.01 C206.09,25.26 203.93,19.81 197.87,14.62 C188.08,6.24 172.37,7.68 164.07,17.72 C159.95,22.70 158.00,29.60 158.00,39.18 L 158.00 47.00 L 123.22 47.00 L 122.81 36.25 C122.37,24.47 121.34,21.50 115.80,15.96 C106.15,6.30 91.20,6.73 81.66,16.94 C76.26,22.70 75.01,26.69 75.01,38.17 L 75.00 46.83 L 52.75 47.17 C32.68,47.48 30.05,47.72 25.95,49.61 C19.30,52.68 14.45,57.38 11.29,63.82 L 8.50 69.50 L 8.50 446.50 L 10.77 451.10 C13.85,457.36 19.41,462.76 26.00,465.89 L 31.50 468.50 L 177.44 468.77 L 323.37 469.04 L 329.44 474.83 C343.26,488.04 361.83,497.51 381.63,501.45 C390.99,503.31 409.06,503.33 418.75,501.49 ZM 32.74 425.57 C27.70,423.77 26.02,422.24 23.86,417.50 C22.13,413.70 22.04,406.82 22.02,276.75 L 22.00 140.00 L 426.00 140.00 L 426.00 298.25 L 422.75 297.58 C414.24,295.81 401.63,294.95 393.25,295.56 L 384.00 296.24 L 384.00 278.62 C384.00,262.33 383.85,260.85 382.00,259.00 C380.12,257.12 378.67,257.00 358.45,257.00 C356.29,257.00 354.30,256.99 352.48,256.97 C342.15,256.91 336.99,256.87 334.43,259.44 C331.87,262.00 331.91,267.15 331.97,277.45 C331.99,279.27 332.00,281.26 332.00,283.42 C332.00,304.25 332.07,304.99 334.19,306.96 C336.25,308.89 339.40,309.55 344.91,309.22 C347.66,309.06 347.49,309.24 340.00,314.55 C332.56,319.82 323.70,328.29 318.32,335.25 C314.44,340.27 313.63,340.87 311.90,339.95 C310.63,339.27 302.36,339.00 288.87,339.19 C286.73,339.23 284.78,339.24 282.99,339.25 C273.43,339.32 268.64,339.36 266.26,341.77 C263.87,344.19 263.90,349.00 263.97,358.65 C263.99,360.45 264.00,362.41 264.00,364.56 C264.00,377.64 264.41,385.80 265.14,387.40 C266.78,391.02 270.82,392.00 284.00,392.00 L 295.70 392.00 L 296.37 402.75 C296.74,408.66 297.63,416.31 298.35,419.75 C299.07,423.19 299.44,426.23 299.16,426.50 C298.89,426.78 239.68,426.98 167.58,426.96 C60.57,426.92 35.81,426.67 32.74,425.57 ZM 32.74 453.57 C27.85,451.82 26.26,450.44 23.93,445.86 C21.93,441.94 21.34,437.00 22.88,437.00 C23.36,437.00 25.50,437.79 27.63,438.75 C31.24,440.38 40.79,440.53 168.28,441.00 L 305.06 441.50 L 308.45 447.48 C310.31,450.77 311.62,453.80 311.36,454.23 C311.10,454.65 249.15,454.98 173.69,454.96 C61.57,454.92 35.81,454.67 32.74,453.57 ZM 245.69 389.59 L 248.50 387.18 L 248.81 367.40 C249.15,345.93 248.94,343.94 245.97,340.97 C244.14,339.14 242.58,339.00 223.55,339.00 C210.69,339.00 202.19,339.41 200.66,340.11 C196.51,342.00 196.00,344.83 196.00,365.82 C196.00,386.96 196.44,389.02 201.36,391.01 C202.54,391.48 212.36,391.90 223.19,391.94 C242.61,392.00 242.93,391.97 245.69,389.59 ZM 246.59 306.69 C248.96,303.93 249.00,303.58 249.00,283.89 C249.00,262.25 248.27,258.61 243.68,257.46 C242.42,257.14 232.04,257.02 220.61,257.19 C218.48,257.22 216.54,257.24 214.77,257.25 C205.40,257.32 200.67,257.35 198.29,259.74 C195.87,262.17 195.90,267.06 195.97,276.94 C195.99,278.78 196.00,280.78 196.00,282.98 C196.00,302.28 196.14,303.91 198.02,306.30 C199.13,307.71 201.04,309.07 202.27,309.33 C203.50,309.58 213.43,309.72 224.34,309.64 L 244.18 309.50 ZM 178.08 389.08 L 181.00 386.15 L 181.00 365.19 C181.00,363.00 181.01,360.99 181.03,359.16 C181.09,349.07 181.13,344.13 178.68,341.69 C176.32,339.35 171.67,339.32 162.57,339.25 C160.84,339.24 158.96,339.22 156.90,339.19 C145.74,339.02 135.61,339.13 134.38,339.44 C129.15,340.75 129.00,341.46 129.00,365.42 C129.00,385.38 129.18,387.85 130.75,389.21 C133.63,391.72 134.70,391.84 155.33,391.92 L 175.15 392.00 ZM 111.09 389.14 C112.84,386.98 113.00,384.95 113.00,365.34 C113.00,363.24 113.01,361.30 113.02,359.52 C113.09,349.12 113.12,343.95 110.55,341.40 C108.02,338.88 102.95,338.91 92.89,338.98 C91.14,338.99 89.24,339.00 87.18,339.00 C67.54,339.00 66.11,339.13 63.63,341.07 L 61.00 343.15 L 61.00 364.64 C61.00,387.02 61.39,389.39 65.32,391.02 C66.52,391.52 76.88,391.83 88.34,391.72 C108.91,391.50 109.20,391.47 111.09,389.14 ZM 106.87 309.04 C112.77,307.35 112.93,306.64 112.97,283.38 C113.00,263.51 112.88,262.11 110.93,259.63 L 108.85 257.00 L 87.56 257.00 C67.54,257.00 66.11,257.12 63.63,259.07 L 61.00 261.15 L 61.00 282.88 C61.00,306.87 61.17,307.60 67.05,308.98 C71.98,310.14 102.87,310.19 106.87,309.04 ZM 313.92 307.57 C315.91,305.77 316.00,304.70 316.00,283.35 C316.00,262.33 315.88,260.88 314.00,259.00 C312.12,257.12 310.67,257.00 290.45,257.00 C288.33,257.00 286.38,256.99 284.59,256.98 C274.13,256.91 268.95,256.88 266.39,259.46 C263.88,261.99 263.91,267.05 263.98,277.09 C263.99,278.85 264.00,280.75 264.00,282.82 C264.00,302.28 264.14,303.91 266.02,306.30 C267.13,307.71 269.04,309.09 270.27,309.35 C271.50,309.62 281.35,309.75 292.17,309.64 C309.86,309.47 312.06,309.26 313.92,307.57 ZM 178.61 306.67 C180.97,303.93 181.00,303.58 181.00,282.90 C181.00,280.89 181.01,279.04 181.02,277.34 C181.08,267.03 181.11,261.91 178.57,259.38 C176.05,256.89 171.03,256.92 161.05,256.98 C159.37,256.99 157.56,257.00 155.59,257.00 C133.98,257.00 130.38,257.61 129.44,261.42 C129.16,262.56 129.06,273.17 129.22,285.00 L 129.50 306.50 L 133.00 308.31 C136.11,309.92 138.73,310.08 156.36,309.78 L 176.22 309.44 ZM 246.14 225.09 C248.49,223.18 248.50,223.09 248.50,201.19 C248.50,180.98 248.35,179.04 246.60,177.10 C244.77,175.09 243.78,175.00 222.80,175.00 L 200.91 175.00 L 198.40 177.51 L 195.89 180.02 L 196.19 201.60 C196.50,222.90 196.53,223.20 198.86,225.09 C201.02,226.84 203.05,227.00 222.50,227.00 C241.96,227.00 243.98,226.84 246.14,225.09 ZM 178.93 224.37 C180.87,221.89 181.00,220.46 181.00,201.00 C181.00,181.54 180.87,180.11 178.93,177.63 L 176.85 175.00 L 154.93 175.00 C134.33,175.00 132.88,175.12 131.00,177.00 C129.12,178.88 129.00,180.33 129.00,201.44 C129.00,223.50 129.04,223.91 131.22,225.44 C133.07,226.74 137.12,227.00 155.15,227.00 L 176.85 227.00 ZM 110.93 224.37 C112.88,221.89 113.00,220.46 113.00,200.68 C113.00,198.45 113.02,196.42 113.03,194.56 C113.10,184.75 113.14,179.82 110.69,177.36 C108.21,174.86 103.19,174.90 93.07,174.97 C91.17,174.98 89.10,175.00 86.83,175.00 C66.33,175.00 64.88,175.12 63.00,177.00 C61.12,178.88 61.00,180.33 61.00,200.69 C61.00,203.00 60.98,205.12 60.97,207.05 C60.89,217.14 60.85,222.18 63.35,224.67 C65.84,227.15 70.83,227.11 80.79,227.03 C82.70,227.02 84.80,227.00 87.10,227.00 L 108.85 227.00 ZM 382.00 225.00 C383.88,223.12 384.00,221.67 384.00,201.00 C384.00,180.33 383.88,178.88 382.00,177.00 C380.12,175.12 378.67,175.00 358.31,175.00 C356.02,175.00 353.93,174.98 352.01,174.97 C341.84,174.90 336.79,174.86 334.31,177.36 C331.86,179.83 331.89,184.77 331.97,194.56 C331.98,196.43 332.00,198.48 332.00,200.72 C332.00,202.86 331.99,204.82 331.98,206.63 C331.91,216.87 331.87,222.00 334.42,224.56 C336.98,227.13 342.15,227.09 352.50,227.02 C354.32,227.01 356.30,227.00 358.45,227.00 C378.67,227.00 380.12,226.88 382.00,225.00 ZM 314.00 225.00 C315.88,223.12 316.00,221.67 316.00,201.00 C316.00,180.33 315.88,178.88 314.00,177.00 C312.12,175.12 310.67,175.00 290.45,175.00 C288.32,175.00 286.36,174.99 284.55,174.98 C274.14,174.91 268.96,174.88 266.40,177.45 C263.88,179.99 263.91,185.08 263.98,195.20 C263.99,196.98 264.00,198.90 264.00,201.00 C264.00,203.10 263.99,205.02 263.98,206.80 C263.91,216.92 263.88,222.01 266.40,224.55 C268.96,227.12 274.14,227.09 284.55,227.02 C286.36,227.01 288.32,227.00 290.45,227.00 C310.67,227.00 312.12,226.88 314.00,225.00 ZM 372.34 416.80 C360.11,404.71 358.40,402.00 361.20,399.20 C364.02,396.38 367.28,397.92 375.56,406.00 C381.96,412.25 384.39,414.00 386.64,414.00 C389.06,414.00 393.03,410.49 411.50,392.00 C429.39,374.10 433.99,370.00 436.21,370.00 C438.85,370.00 441.00,372.30 441.00,375.14 C441.00,377.27 388.77,429.00 386.61,429.00 C385.48,429.00 379.57,423.95 372.34,416.80 ZM 256.00 38.95 C256.00,29.90 257.43,26.04 261.47,24.19 C264.92,22.62 267.49,22.69 270.85,24.43 C274.77,26.45 276.00,29.95 276.00,39.05 L 276.00 47.00 L 256.00 47.00 ZM 339.00 39.25 C339.01,33.27 339.46,30.75 341.00,28.23 C344.58,22.36 351.47,21.31 356.08,25.92 C358.88,28.72 359.00,29.22 359.00,37.92 L 359.00 47.00 L 339.00 47.00 ZM 89.00 38.40 C89.00,29.95 89.06,29.74 92.40,26.40 C96.14,22.66 99.36,22.10 103.85,24.43 C107.77,26.45 109.00,29.95 109.00,39.05 L 109.00 47.00 L 89.00 47.00 ZM 172.00 39.75 C172.00,31.49 174.03,26.26 178.00,24.28 C182.19,22.18 185.89,22.73 189.08,25.92 C191.88,28.72 192.00,29.22 192.00,37.92 L 192.00 47.00 L 172.00 47.00 Z" fill="rgb(244,246,247)"/>
<path d="M 22.00 99.46 C22.00,74.83 22.15,72.64 24.01,68.97 C27.67,61.80 30.71,61.00 54.33,61.00 L 74.74 61.00 L 75.21 68.25 C76.01,80.56 81.87,88.45 92.50,91.54 C100.62,93.90 105.00,91.78 105.00,85.49 C105.00,81.61 102.15,79.00 97.91,79.00 C92.27,79.00 88.02,72.67 88.01,64.25 L 88.00 61.00 L 122.91 61.00 L 157.83 61.00 L 158.52 68.32 C159.76,81.59 166.24,89.66 177.53,92.01 C182.28,92.99 183.46,92.93 185.54,91.57 C190.59,88.26 189.16,80.73 183.24,79.43 C174.58,77.55 172.00,74.47 172.00,66.05 L 172.00 61.00 L 207.00 61.00 L 242.00 61.00 L 242.00 66.63 C242.00,74.25 243.65,79.23 247.77,84.04 C255.50,93.07 269.82,95.56 271.67,88.19 C272.61,84.42 270.85,80.64 267.73,79.77 C266.23,79.35 263.81,78.66 262.35,78.25 C258.13,77.05 255.59,72.76 255.54,66.73 L 255.50 61.50 L 290.25 61.24 L 325.00 60.97 L 325.00 65.81 C325.00,78.44 331.77,88.42 342.44,91.53 C349.10,93.46 352.78,92.63 355.00,88.67 C356.34,86.29 356.33,85.70 354.97,83.26 C354.13,81.76 352.10,80.12 350.47,79.63 C340.83,76.71 339.00,74.55 339.00,66.05 L 339.00 61.00 L 376.85 61.00 C414.57,61.00 414.72,61.01 418.08,63.27 C419.93,64.52 422.48,67.07 423.73,68.92 C425.95,72.22 426.00,72.87 426.00,99.15 L 426.00 126.00 L 224.00 126.00 L 22.00 126.00 L 22.00 99.46 Z" fill="rgb(247,100,112)"/>
</g>
</svg>